<svg xmlns="http://www.w3.org/2000/svg" width="48" height="48" viewBox="0 0 48 48"><defs><style>.cls-1{fill:rgba(4, 4, 52, 1);}.cls-2{fill:rgba(255, 255, 255, 1);}.cls-3{fill:rgba(5, 2, 34, 1);}.cls-4{fill:rgba(194, 210, 246, 1);}</style></defs><title>21-Cd</title><g id="_21-Cd" data-name="21-Cd"><circle class="cls-1" cx="24" cy="24" r="23"/><circle class="cls-2" cx="24" cy="24" r="8"/><circle class="cls-3" cx="24" cy="24" r="4"/><path class="cls-4" d="M24,0A24,24,0,1,0,48,24,24.028,24.028,0,0,0,24,0Zm0,46A22,22,0,1,1,46,24,22.025,22.025,0,0,1,24,46Z"/><path class="cls-4" d="M33,24a9,9,0,1,0-9,9A9.011,9.011,0,0,0,33,24ZM17,24a7,7,0,1,1,7,7A7.008,7.008,0,0,1,17,24Z"/><path class="cls-4" d="M25,28a1,1,0,0,0-1-1,3,3,0,1,1,2.829-4H25a1,1,0,0,0,0,2h3a1,1,0,0,0,1-1,5,5,0,1,0-5,5A1,1,0,0,0,25,28Z"/><path class="cls-4" d="M25,7a1,1,0,0,0-1-1A18.021,18.021,0,0,0,6,24a1,1,0,0,0,2,0A16.019,16.019,0,0,1,24,8,1,1,0,0,0,25,7Z"/><path class="cls-4" d="M41,23a1,1,0,0,0-1,1A16.019,16.019,0,0,1,24,40a1,1,0,0,0,0,2A18.021,18.021,0,0,0,42,24,1,1,0,0,0,41,23Z"/></g></svg>